{"glyphs":{"A":{"ha":958,"x_min":-28,"x_max":860,"o":"m -28 0 l 507 1010 l 656 1010 l 860 0 l 730 0 l 615 600 q 593 734 606 648 q 564 950 579 821 l 588 950 q 492 741 533 827 q 422 600 451 655 l 115 0 l -28 0 m 203 282 l 222 395 l 741 395 l 722 282 l 203 282 z "},"B":{"ha":909,"x_min":59,"x_max":863,"o":"m 59 0 l 227 1010 l 581 1010 q 750 974 686 1010 q 838 874 813 937 q 850 737 863 812 q 811 633 841 675 q 738 566 781 591 q 647 528 695 541 l 647 521 q 737 487 694 518 q 802 400 779 456 q 811 263 824 343 q 755 128 799 187 q 631 34 711 68 q 433 0 552 0 l 59 0 m 207 113 l 441 113 q 620 163 561 113 q 690 281 679 213 q 679 371 698 331 q 617 435 659 411 q 512 458 574 458 l 264 458 l 207 113 m 282 567 l 501 567 q 603 589 555 567 q 685 652 651 612 q 728 747 719 692 q 702 853 739 810 q 567 897 666 897 l 337 897 l 282 567 z "},"C":{"ha":1014,"x_min":94,"x_max":990,"o":"m 473 -14 q 273 35 359 -14 q 141 175 188 84 q 94 393 94 267 q 132 626 94 513 q 239 828 169 739 q 408 971 309 918 q 630 1024 507 1024 q 773 1002 708 1024 q 887 937 839 979 q 963 832 936 894 q 990 692 989 771 l 861 692 q 841 783 859 744 q 790 850 822 823 q 716 891 758 877 q 625 905 674 905 q 455 861 530 905 q 327 745 380 818 q 247 581 275 671 q 219 397 219 490 q 252 237 219 302 q 344 139 286 172 q 478 106 402 106 q 579 120 530 106 q 671 161 628 134 q 747 227 714 188 q 800 318 781 267 l 929 318 q 857 180 903 241 q 751 75 812 119 q 620 9 690 32 q 473 -14 549 -14 z "},"D":{"ha":1002,"x_min":59,"x_max":967,"o":"m 397 0 l 130 0 l 149 114 l 385 114 q 598 161 509 114 q 742 297 687 209 q 816 507 796 386 q 811 716 836 629 q 714 850 785 804 q 527 897 644 897 l 273 897 l 292 1010 l 538 1010 q 785 950 686 1010 q 926 776 884 889 q 941 506 967 663 q 844 234 914 347 q 662 60 774 121 q 397 0 549 0 m 355 1010 l 188 0 l 59 0 l 227 1010 l 355 1010 z "},"E":{"ha":836,"x_min":59,"x_max":842,"o":"m 59 0 l 227 1010 l 842 1010 l 823 897 l 336 897 l 282 567 l 736 567 l 717 454 l 262 454 l 206 113 l 699 113 l 681 0 l 59 0 z "},"F":{"ha":820,"x_min":59,"x_max":838,"o":"m 59 0 l 227 1010 l 838 1010 l 819 897 l 336 897 l 279 550 l 715 550 l 696 437 l 260 437 l 188 0 l 59 0 z "},"G":{"ha":1036,"x_min":94,"x_max":994,"o":"m 477 -14 q 273 35 359 -14 q 141 175 187 84 q 94 391 94 265 q 131 624 94 511 q 237 827 168 737 q 405 971 306 918 q 627 1024 503 1024 q 775 1000 708 1024 q 891 932 842 976 q 966 828 939 888 q 994 694 993 767 l 861 694 q 835 781 854 743 q 787 848 817 820 q 715 890 757 876 q 622 905 674 905 q 454 861 528 905 q 327 745 380 818 q 247 581 275 671 q 219 397 219 491 q 292 180 219 254 q 482 106 366 106 q 643 143 570 106 q 764 248 715 180 q 828 407 813 316 l 864 395 l 564 395 l 583 508 l 970 508 l 951 393 q 894 225 936 300 q 789 97 852 150 q 646 15 726 43 q 477 -14 567 -14 z "},"H":{"ha":1032,"x_min":59,"x_max":1015,"o":"m 59 0 l 227 1010 l 355 1010 l 283 574 l 813 574 l 886 1010 l 1015 1010 l 847 0 l 718 0 l 795 460 l 264 460 l 188 0 l 59 0 z "},"I":{"ha":373,"x_min":59,"x_max":355,"o":"m 355 1010 l 188 0 l 59 0 l 227 1010 l 355 1010 z "},"J":{"ha":793,"x_min":47,"x_max":776,"o":"m 311 -14 q 120 48 192 -14 q 47 225 47 111 q 48 248 47 235 q 53 283 50 260 q 62 343 56 305 l 191 343 q 182 289 185 308 q 178 259 179 269 q 178 242 178 250 q 217 136 178 173 q 323 100 256 100 q 455 147 399 100 q 527 289 511 195 l 647 1010 l 776 1010 l 656 289 q 539 66 632 145 q 311 -14 446 -14 z "},"K":{"ha":933,"x_min":59,"x_max":998,"o":"m 195 289 l 212 427 q 296 517 254 474 q 380 602 338 561 q 467 684 423 644 l 823 1010 l 998 1010 l 490 548 l 483 549 l 195 289 m 59 0 l 227 1010 l 356 1010 l 298 665 l 260 447 l 252 384 l 189 0 l 59 0 m 690 0 l 410 514 l 495 614 l 831 0 l 690 0 z "},"L":{"ha":785,"x_min":59,"x_max":675,"o":"m 59 0 l 227 1010 l 355 1010 l 207 114 l 675 114 l 656 0 l 59 0 z "},"M":{"ha":1255,"x_min":59,"x_max":1237,"o":"m 59 0 l 227 1010 l 410 1010 l 553 373 q 564 316 558 350 q 575 242 570 281 q 586 164 581 203 q 595 94 591 125 l 566 94 q 600 167 582 127 q 637 245 618 206 q 672 317 656 284 q 701 373 689 351 l 1053 1010 l 1237 1010 l 1069 0 l 943 0 l 1038 577 q 1050 653 1043 611 q 1066 740 1058 695 q 1083 828 1075 785 q 1099 910 1092 872 l 1109 910 q 1063 814 1087 863 q 1016 720 1039 765 q 974 638 994 675 q 941 577 955 602 l 620 0 l 508 0 l 374 577 q 358 661 368 608 q 337 779 348 713 q 313 910 326 844 l 326 910 q 314 825 321 869 q 301 735 308 780 q 288 650 294 691 q 277 577 282 610 l 182 0 l 59 0 z "},"N":{"ha":1046,"x_min":59,"x_max":1029,"o":"m 59 0 l 227 1010 l 374 1010 l 678 364 q 704 306 688 344 q 740 216 721 267 q 777 105 760 165 l 763 105 q 772 216 766 163 q 785 313 779 269 q 798 391 792 358 l 900 1010 l 1029 1010 l 861 0 l 713 0 l 441 575 q 407 653 425 612 q 365 754 389 695 q 307 901 342 813 l 326 901 q 308 756 315 819 q 294 648 300 693 q 283 576 288 604 l 189 0 l 59 0 z "},"O":{"ha":1062,"x_min":94,"x_max":1009,"o":"m 474 -14 q 274 35 359 -14 q 141 175 189 84 q 94 393 94 267 q 132 626 94 513 q 239 829 169 739 q 409 971 310 918 q 631 1024 508 1024 q 830 975 745 1024 q 962 836 915 926 q 1009 618 1009 745 q 972 384 1009 497 q 864 181 935 271 q 695 39 794 92 q 474 -14 597 -14 m 479 106 q 649 149 574 106 q 777 266 724 193 q 857 430 829 339 q 884 614 884 520 q 851 774 884 709 q 760 872 819 839 q 626 905 702 905 q 456 861 531 905 q 328 745 380 818 q 247 581 275 671 q 219 397 219 491 q 252 237 219 302 q 344 139 286 172 q 479 106 403 106 z "},"P":{"ha":887,"x_min":59,"x_max":879,"o":"m 59 0 l 227 1010 l 572 1010 q 759 968 690 1010 q 853 853 828 926 q 864 690 879 781 q 801 527 850 600 q 668 409 751 453 q 467 366 585 366 l 222 366 l 241 479 l 479 479 q 614 507 561 479 q 697 583 667 535 q 736 690 726 631 q 731 795 745 749 q 672 870 717 842 q 547 897 628 897 l 336 897 l 188 0 l 59 0 z "},"Q":{"ha":1062,"x_min":94,"x_max":1009,"o":"m 502 316 l 625 316 l 713 168 l 735 129 l 867 -95 l 743 -95 l 658 53 l 635 91 l 502 316 m 474 -14 q 274 35 359 -14 q 141 175 189 84 q 94 393 94 267 q 132 626 94 513 q 239 829 169 739 q 409 971 310 918 q 631 1024 508 1024 q 830 975 745 1024 q 962 836 915 926 q 1009 618 1009 745 q 972 384 1009 497 q 864 181 935 271 q 695 39 794 92 q 474 -14 597 -14 m 479 106 q 649 149 574 106 q 777 266 724 193 q 857 430 829 339 q 884 614 884 520 q 851 774 884 709 q 760 872 819 839 q 626 905 702 905 q 456 861 531 905 q 328 745 380 818 q 247 581 275 671 q 219 397 219 491 q 252 237 219 302 q 344 139 286 172 q 479 106 403 106 z "},"R":{"ha":894,"x_min":59,"x_max":880,"o":"m 59 0 l 227 1010 l 572 1010 q 761 970 692 1010 q 856 859 831 929 q 865 699 880 788 q 802 540 850 609 q 671 431 754 471 q 471 392 589 392 l 196 392 l 215 507 l 483 507 q 616 530 564 507 q 699 597 669 553 q 737 699 728 640 q 708 845 753 793 q 547 897 663 897 l 336 897 l 188 0 l 59 0 m 640 0 l 471 455 l 616 455 l 789 0 l 640 0 z "},"S":{"ha":890,"x_min":51,"x_max":870,"o":"m 390 -18 q 204 17 281 -18 q 89 116 127 52 q 59 264 51 180 l 191 264 q 214 171 187 208 q 290 116 241 134 q 398 98 338 98 q 525 120 467 98 q 622 183 583 142 q 669 277 661 223 q 655 356 677 326 q 591 406 633 387 q 496 441 549 426 l 380 476 q 210 570 271 508 q 165 739 149 633 q 233 888 179 824 q 369 988 287 953 q 549 1024 451 1024 q 721 989 648 1024 q 832 893 795 954 q 860 755 870 833 l 734 755 q 683 869 738 829 q 537 910 628 910 q 419 889 471 910 q 334 831 367 868 q 292 747 300 794 q 310 662 283 694 q 379 611 337 629 q 458 583 422 593 l 554 555 q 638 525 592 544 q 724 475 684 507 q 785 395 764 444 q 794 275 806 347 q 729 126 781 193 q 593 21 678 60 q 390 -18 507 -18 z "},"T":{"ha":898,"x_min":153,"x_max":936,"o":"m 153 897 l 172 1010 l 936 1010 l 917 897 l 600 897 l 452 0 l 323 0 l 471 897 l 153 897 z "},"U":{"ha":1033,"x_min":100,"x_max":1015,"o":"m 459 -16 q 255 32 338 -16 q 136 162 172 79 q 117 349 100 245 l 227 1010 l 355 1010 l 246 350 q 256 220 234 276 q 332 134 279 165 q 464 103 385 103 q 614 136 547 103 q 723 227 680 170 q 779 359 766 285 l 886 1010 l 1015 1010 l 905 340 q 826 155 888 235 q 671 29 765 75 q 459 -16 576 -16 z "},"V":{"ha":958,"x_min":140,"x_max":1027,"o":"m 344 0 l 140 1010 l 275 1010 l 390 411 q 414 268 401 350 q 441 61 426 186 l 417 61 q 513 270 472 184 q 583 411 554 355 l 890 1010 l 1027 1010 l 492 0 l 344 0 z "},"W":{"ha":1369,"x_min":140,"x_max":1438,"o":"m 248 0 l 140 1010 l 271 1010 l 328 391 q 336 290 333 341 q 341 186 339 239 q 345 78 344 134 l 328 78 q 367 186 347 134 q 407 290 387 239 q 449 391 428 341 l 715 1010 l 862 1010 l 922 391 q 930 290 926 341 q 937 186 934 239 q 941 78 939 134 l 922 78 q 961 186 941 134 q 1002 290 981 239 q 1043 391 1022 341 l 1305 1010 l 1438 1010 l 994 0 l 844 0 l 777 640 q 767 775 770 703 q 764 946 764 848 l 791 946 q 734 781 761 853 q 677 640 707 709 l 398 0 l 248 0 z "},"X":{"ha":947,"x_min":-24,"x_max":994,"o":"m -24 0 l 464 565 l 448 469 l 165 1010 l 309 1010 l 418 796 q 458 717 443 749 q 486 653 473 684 q 512 578 498 622 l 490 578 q 542 653 519 621 q 591 717 565 684 q 658 796 618 750 l 842 1010 l 994 1010 l 532 475 l 548 570 l 846 0 l 703 0 l 568 256 q 532 329 547 298 q 506 389 517 359 q 479 461 494 419 l 507 461 q 457 389 479 420 q 410 329 435 359 q 349 256 385 298 l 127 0 l -24 0 z "},"Y":{"ha":943,"x_min":140,"x_max":1012,"o":"m 344 0 l 412 414 l 140 1010 l 279 1010 l 425 684 q 468 579 450 629 q 501 454 486 530 l 450 454 q 525 582 490 531 q 600 684 559 632 l 854 1010 l 1012 1010 l 541 414 l 473 0 l 344 0 z "},"Z":{"ha":875,"x_min":26,"x_max":891,"o":"m 26 0 l 41 91 l 716 897 l 169 897 l 188 1010 l 891 1010 l 876 918 l 200 113 l 747 113 l 728 0 l 26 0 z "},"a":{"ha":852,"x_min":51,"x_max":808,"o":"m 326 -16 q 168 32 232 -16 q 77 169 103 81 q 71 378 51 258 q 146 586 91 498 q 283 720 202 673 q 458 768 363 768 q 570 744 531 768 q 628 689 610 720 q 655 637 646 658 l 665 637 l 685 758 l 808 758 l 682 0 l 564 0 l 583 117 l 568 117 q 522 63 551 95 q 446 8 493 32 q 326 -16 398 -16 m 364 93 q 487 130 433 93 q 575 231 540 166 q 624 379 610 295 q 624 526 638 463 q 569 624 610 589 q 458 659 527 659 q 331 621 385 659 q 242 520 276 583 q 195 379 208 457 q 195 235 182 300 q 251 131 209 170 q 364 93 293 93 z "},"b":{"ha":851,"x_min":44,"x_max":787,"o":"m 401 -16 q 287 8 328 -16 q 225 63 245 32 q 195 117 205 95 l 182 117 l 162 0 l 44 0 l 212 1010 l 334 1010 l 271 637 l 281 637 q 326 689 299 659 q 398 744 353 720 q 515 768 444 768 q 659 731 598 768 q 753 627 720 694 q 787 465 787 559 q 761 291 787 376 q 685 136 734 205 q 564 25 635 66 q 401 -16 492 -16 m 385 93 q 505 126 453 93 q 592 214 557 159 q 646 333 628 269 q 664 461 664 398 q 623 603 664 548 q 494 659 582 659 q 374 626 426 659 q 289 541 323 594 q 237 422 254 487 q 220 291 220 357 q 261 147 220 201 q 385 93 302 93 z "},"c":{"ha":794,"x_min":64,"x_max":751,"o":"m 358 -16 q 201 22 267 -16 q 99 130 135 60 q 64 294 64 200 q 92 469 64 384 q 173 621 120 553 q 301 728 226 688 q 473 768 377 768 q 577 753 529 768 q 661 711 625 739 q 720 644 697 683 q 751 555 743 604 l 631 528 q 616 581 628 557 q 583 622 604 605 q 535 649 563 640 q 470 659 507 659 q 348 626 401 659 q 259 540 295 593 q 204 422 222 486 q 186 295 186 358 q 204 193 186 239 q 260 120 222 146 q 361 93 299 93 q 435 104 400 93 q 499 134 470 115 q 549 179 528 153 q 584 236 571 205 l 696 197 q 638 107 673 146 q 559 40 603 68 q 464 -2 515 13 q 358 -16 413 -16 z "},"d":{"ha":851,"x_min":64,"x_max":848,"o":"m 334 -16 q 137 65 210 -16 q 64 288 64 147 q 90 463 64 378 q 166 617 116 549 q 287 727 216 686 q 450 768 359 768 q 566 743 525 768 q 626 686 607 718 q 655 633 646 654 l 663 633 l 726 1010 l 848 1010 l 681 0 l 562 0 l 583 117 l 570 117 q 525 62 553 94 q 451 7 497 31 q 334 -16 404 -16 m 355 93 q 475 126 424 93 q 562 214 527 159 q 614 335 596 269 q 631 465 631 401 q 590 606 631 554 q 464 659 549 659 q 345 626 396 659 q 258 541 293 594 q 205 424 223 488 q 187 295 187 359 q 228 150 187 207 q 355 93 269 93 z "},"e":{"ha":800,"x_min":64,"x_max":719,"o":"m 363 -16 q 202 20 269 -16 q 100 125 136 57 q 64 290 64 194 q 96 477 64 389 q 184 632 127 565 q 316 736 241 699 q 477 774 391 774 q 605 749 551 774 q 689 677 659 724 q 719 568 719 631 q 686 459 719 504 q 584 385 653 414 q 407 343 515 357 q 149 330 298 330 l 165 422 q 372 430 289 422 q 505 454 456 437 q 575 499 554 471 q 597 570 597 528 q 561 640 597 614 q 465 666 524 666 q 335 629 389 666 q 247 534 281 592 q 197 411 213 476 q 181 290 181 347 q 199 190 181 235 q 259 118 218 144 q 370 92 301 92 q 499 123 443 92 q 585 209 556 155 l 699 177 q 566 36 656 87 q 363 -16 475 -16 z "},"f":{"ha":518,"x_min":-117,"x_max":606,"o":"m 529 758 l 513 659 l 60 659 l 77 758 l 529 758 m -38 -304 q -66 -302 -52 -304 q -93 -299 -80 -301 q -117 -292 -105 -296 l -87 -183 q -54 -189 -77 -186 q -22 -191 -31 -191 q 55 -164 26 -191 q 92 -79 83 -138 l 239 810 q 288 946 253 890 q 379 1029 323 1001 q 508 1058 435 1058 q 558 1054 534 1058 q 606 1044 582 1050 l 572 940 q 536 944 561 943 q 490 945 511 945 q 405 913 436 945 q 362 812 374 880 l 215 -79 q 170 -203 203 -153 q 84 -278 136 -253 q -38 -304 31 -304 z "},"g":{"ha":852,"x_min":17,"x_max":808,"o":"m 309 -300 q 163 -277 222 -300 q 68 -218 104 -254 q 17 -142 33 -182 l 122 -85 q 153 -131 134 -105 q 209 -175 172 -156 q 312 -193 246 -193 q 474 -148 406 -193 q 558 -9 543 -102 l 583 139 l 572 136 q 528 85 555 114 q 454 34 500 56 q 338 12 409 12 q 196 46 257 12 q 100 144 134 79 q 65 300 65 208 q 92 470 65 387 q 168 621 118 553 q 290 728 218 688 q 450 768 361 768 q 543 753 507 768 q 602 715 580 738 q 636 671 624 693 q 654 633 648 648 l 669 637 l 689 758 l 808 758 l 677 -24 q 608 -182 661 -121 q 478 -271 555 -243 q 309 -300 400 -300 m 360 121 q 481 151 430 121 q 566 232 532 182 q 616 344 600 283 q 632 468 632 406 q 591 607 632 555 q 465 659 549 659 q 347 628 399 659 q 260 546 296 597 q 206 433 224 495 q 188 307 188 370 q 231 172 188 222 q 360 121 273 121 z "},"h":{"ha":821,"x_min":44,"x_max":747,"o":"m 241 454 l 166 0 l 44 0 l 212 1010 l 334 1010 l 261 574 l 240 574 q 318 688 275 646 q 410 749 360 730 q 515 768 459 768 q 646 736 592 768 q 724 641 701 705 q 731 481 747 578 l 651 0 l 528 0 l 607 471 q 583 609 622 560 q 466 658 545 658 q 365 634 412 658 q 285 565 318 610 q 241 454 252 520 z "},"i":{"ha":337,"x_min":45,"x_max":357,"o":"m 45 0 l 170 758 l 292 758 l 167 0 l 45 0 m 252 882 q 197 906 218 882 q 181 963 176 930 q 216 1020 186 997 q 279 1044 245 1044 q 336 1020 315 1044 q 351 963 357 997 q 317 906 346 930 q 252 882 288 882 z "},"j":{"ha":336,"x_min":-127,"x_max":356,"o":"m 170 758 l 292 758 l 157 -54 q 113 -177 146 -126 q 25 -256 79 -229 q -102 -283 -28 -283 l -127 -283 l -109 -171 l -86 -171 q -4 -141 -34 -171 q 35 -54 26 -111 l 170 758 m 252 882 q 196 906 217 882 q 180 963 175 930 q 215 1020 186 997 q 279 1044 244 1044 q 335 1020 314 1044 q 351 963 356 997 q 316 906 345 930 q 252 882 287 882 z "},"k":{"ha":763,"x_min":44,"x_max":782,"o":"m 204 273 l 229 424 l 252 424 l 631 758 l 782 758 l 372 398 l 358 398 l 204 273 m 44 0 l 212 1010 l 334 1010 l 166 0 l 44 0 m 524 0 l 294 371 l 396 457 l 680 0 l 524 0 z "},"l":{"ha":336,"x_min":44,"x_max":334,"o":"m 334 1010 l 166 0 l 44 0 l 212 1010 l 334 1010 z "},"m":{"ha":1217,"x_min":44,"x_max":1145,"o":"m 44 0 l 170 758 l 289 758 l 262 589 l 252 592 q 317 694 277 654 q 403 753 357 734 q 496 772 450 772 q 593 747 555 772 q 651 679 632 722 q 672 583 671 637 l 657 591 q 722 688 680 648 q 817 750 763 728 q 928 772 870 772 q 1047 742 996 772 q 1122 654 1098 713 q 1131 507 1145 595 l 1046 0 l 924 0 l 1010 513 q 1004 600 1019 568 q 958 647 989 633 q 889 661 927 661 q 792 638 835 661 q 723 577 749 615 q 688 491 696 538 l 606 0 l 484 0 l 571 524 q 547 625 582 589 q 453 661 513 661 q 363 639 407 661 q 287 576 319 618 q 245 473 255 534 l 166 0 l 44 0 z "},"n":{"ha":821,"x_min":44,"x_max":747,"o":"m 241 450 l 166 0 l 44 0 l 170 758 l 288 758 l 258 574 l 240 578 q 360 725 291 682 q 514 768 429 768 q 647 735 593 768 q 724 638 701 703 q 730 477 747 574 l 651 0 l 529 0 l 608 475 q 587 611 623 564 q 473 658 550 658 q 369 633 418 658 q 286 562 320 608 q 241 450 252 515 z "},"o":{"ha":833,"x_min":64,"x_max":768,"o":"m 358 -16 q 201 22 267 -16 q 99 130 135 60 q 64 294 64 200 q 92 469 64 384 q 173 621 120 553 q 302 728 227 688 q 473 768 378 768 q 631 730 564 768 q 733 622 697 692 q 768 457 768 552 q 740 281 768 366 q 657 129 711 196 q 528 23 604 62 q 358 -16 452 -16 m 361 93 q 484 125 431 93 q 573 211 537 158 q 627 328 609 264 q 646 454 646 392 q 627 558 646 512 q 570 631 609 604 q 469 659 532 659 q 347 626 400 659 q 258 540 294 593 q 204 422 222 486 q 186 295 186 358 q 227 151 186 210 q 361 93 269 93 z "},"p":{"ha":851,"x_min":-3,"x_max":787,"o":"m -3 -283 l 170 758 l 288 758 l 268 637 l 274 637 q 319 691 290 660 q 395 745 348 722 q 515 768 443 768 q 659 731 598 768 q 753 627 720 694 q 787 465 787 559 q 761 291 787 376 q 685 136 734 205 q 564 25 635 66 q 401 -16 492 -16 q 287 9 328 -16 q 226 67 245 35 q 198 121 207 100 l 186 121 l 119 -283 l -3 -283 m 385 93 q 505 126 453 93 q 592 214 557 159 q 646 333 628 269 q 664 461 664 398 q 623 603 664 548 q 494 659 582 659 q 374 626 426 659 q 289 541 323 594 q 237 422 254 487 q 220 291 220 357 q 261 147 220 201 q 385 93 302 93 z "},"q":{"ha":851,"x_min":64,"x_max":807,"o":"m 634 -283 l 511 -283 l 578 117 l 568 117 q 523 60 551 92 q 449 6 494 29 q 334 -16 404 -16 q 190 21 251 -16 q 97 126 130 58 q 64 288 64 194 q 90 463 64 378 q 166 617 116 549 q 287 727 216 686 q 450 768 359 768 q 567 742 525 768 q 629 684 609 717 q 660 629 650 651 l 667 629 l 688 758 l 807 758 l 634 -283 m 355 93 q 475 126 424 93 q 562 214 527 159 q 614 335 596 269 q 631 465 631 401 q 590 606 631 554 q 464 659 549 659 q 345 626 396 659 q 258 541 293 594 q 205 424 223 488 q 187 295 187 359 q 228 150 187 207 q 355 93 269 93 z "},"r":{"ha":524,"x_min":45,"x_max":556,"o":"m 45 0 l 170 758 l 288 758 l 269 642 l 277 642 q 367 734 307 699 q 495 769 427 769 q 527 768 509 769 q 556 767 545 768 l 536 644 q 507 648 528 646 q 464 651 486 651 q 363 628 410 651 q 285 566 316 606 q 245 475 254 526 l 167 0 l 45 0 z "},"s":{"ha":732,"x_min":41,"x_max":682,"o":"m 306 -16 q 173 5 230 -16 q 83 68 117 27 q 43 170 50 110 q 42 179 42 174 q 41 188 41 183 l 159 208 q 203 118 165 145 q 308 91 242 91 q 406 108 363 91 q 477 153 450 125 q 509 214 504 180 q 493 274 515 250 q 418 311 471 298 l 296 340 q 154 418 197 365 q 125 555 111 472 q 179 666 136 618 q 289 741 222 714 q 433 768 355 768 q 600 723 543 768 q 675 610 657 679 q 679 596 677 603 q 682 581 681 589 l 570 561 q 531 633 561 602 q 431 664 502 664 q 345 648 385 664 q 278 606 304 633 q 247 546 252 580 q 265 484 240 507 q 354 445 290 460 l 464 418 q 606 340 563 393 q 635 205 648 286 q 599 117 627 157 q 527 46 571 76 q 427 0 484 16 q 306 -16 371 -16 z "},"t":{"ha":456,"x_min":60,"x_max":469,"o":"m 469 758 l 452 654 l 60 654 l 77 758 l 469 758 m 221 939 l 343 939 l 220 197 q 229 122 212 144 q 294 99 247 99 q 323 102 305 99 q 357 107 342 104 l 365 4 q 322 -6 347 -2 q 273 -9 298 -9 q 127 43 173 -9 q 96 187 81 95 l 221 939 z "},"u":{"ha":822,"x_min":75,"x_max":777,"o":"m 300 -9 q 172 22 224 -9 q 97 117 119 53 q 91 277 75 180 l 170 758 l 292 758 l 215 287 q 238 150 201 200 q 355 100 275 100 q 455 124 408 100 q 536 193 503 147 q 580 304 569 238 l 654 758 l 777 758 l 652 0 l 534 0 l 564 184 l 581 184 q 456 34 528 77 q 300 -9 385 -9 z "},"v":{"ha":781,"x_min":100,"x_max":807,"o":"m 264 0 l 100 758 l 227 758 l 315 309 q 335 169 328 239 q 351 35 342 100 l 306 35 q 366 169 336 100 q 432 309 395 238 l 668 758 l 807 758 l 392 0 l 264 0 z "},"w":{"ha":1137,"x_min":111,"x_max":1152,"o":"m 215 0 l 111 758 l 240 758 l 277 427 q 292 274 285 359 q 304 79 300 189 l 283 79 q 355 269 320 183 q 422 427 390 355 l 568 758 l 698 758 l 732 427 q 746 274 740 359 q 756 79 753 189 l 734 79 q 808 269 772 184 q 876 427 843 354 l 1023 758 l 1152 758 l 797 0 l 675 0 l 634 343 q 623 445 629 391 q 613 557 618 498 q 605 677 609 616 l 631 677 q 584 558 608 616 q 536 446 559 500 q 491 342 513 392 l 336 0 l 215 0 z "},"x":{"ha":758,"x_min":-19,"x_max":764,"o":"m -19 0 l 353 436 l 336 342 l 122 758 l 259 758 l 330 611 q 375 505 357 554 q 414 409 393 455 l 351 409 q 420 505 387 455 q 498 611 452 554 l 619 758 l 764 758 l 411 337 l 425 427 l 651 0 l 513 0 l 429 170 q 385 274 402 226 q 346 366 367 321 l 410 366 q 343 274 375 321 q 266 170 312 226 l 125 0 l -19 0 z "},"y":{"ha":781,"x_min":-13,"x_max":807,"o":"m -13 -275 l 36 -169 l 47 -172 q 116 -176 85 -180 q 176 -146 148 -172 q 231 -67 204 -121 l 263 -4 l 100 758 l 227 758 l 315 309 q 335 169 328 239 q 350 35 341 100 l 305 35 q 365 169 336 100 q 431 309 394 239 l 668 758 l 807 758 l 330 -113 q 258 -212 297 -173 q 173 -270 219 -251 q 73 -289 127 -289 q 20 -284 43 -289 q -13 -275 -3 -279 z "},"z":{"ha":767,"x_min":22,"x_max":730,"o":"m 22 0 l 38 91 l 548 637 l 549 645 l 143 645 l 161 758 l 730 758 l 714 661 l 218 121 l 216 113 l 637 113 l 618 0 l 22 0 z "}}}
